<mxfile host="app.diagrams.net" modified="2021-02-07T06:31:18.264Z" agent="5.0 (Macintosh; Intel Mac OS X 10_15_7) AppleWebKit/537.36 (KHTML, like Gecko) Chrome/88.0.4324.150 Safari/537.36" etag="Lu_aIGEjy3SQND30I3Oe" version="14.2.9" type="github">
  <diagram id="0HUq5OSSfQFf98RePbkd" name="第 1 页">
    <mxGraphModel dx="740" dy="490" grid="1" gridSize="10" guides="1" tooltips="1" connect="1" arrows="1" fold="1" page="1" pageScale="1" pageWidth="827" pageHeight="1169" math="0" shadow="0">
      <root>
        <mxCell id="0" />
        <mxCell id="1" parent="0" />
        <mxCell id="m1J_qlZTNVkyLebTVixf-1" value="" style="ellipse;html=1;shape=startState;fillColor=#000000;strokeColor=#ff0000;" vertex="1" parent="1">
          <mxGeometry x="30" y="180" width="30" height="30" as="geometry" />
        </mxCell>
        <mxCell id="m1J_qlZTNVkyLebTVixf-9" style="edgeStyle=orthogonalEdgeStyle;rounded=0;orthogonalLoop=1;jettySize=auto;html=1;exitX=1;exitY=0.5;exitDx=0;exitDy=0;entryX=0;entryY=0.5;entryDx=0;entryDy=0;" edge="1" parent="1" source="m1J_qlZTNVkyLebTVixf-3" target="m1J_qlZTNVkyLebTVixf-6">
          <mxGeometry relative="1" as="geometry" />
        </mxCell>
        <mxCell id="m1J_qlZTNVkyLebTVixf-23" style="edgeStyle=orthogonalEdgeStyle;rounded=0;orthogonalLoop=1;jettySize=auto;html=1;exitX=0.5;exitY=1;exitDx=0;exitDy=0;entryX=0;entryY=0.5;entryDx=0;entryDy=0;" edge="1" parent="1" source="m1J_qlZTNVkyLebTVixf-3" target="m1J_qlZTNVkyLebTVixf-22">
          <mxGeometry relative="1" as="geometry" />
        </mxCell>
        <mxCell id="m1J_qlZTNVkyLebTVixf-3" value="已支付" style="html=1;" vertex="1" parent="1">
          <mxGeometry x="150" y="170" width="110" height="50" as="geometry" />
        </mxCell>
        <mxCell id="m1J_qlZTNVkyLebTVixf-4" value="用户下单" style="text;html=1;strokeColor=none;fillColor=none;align=center;verticalAlign=middle;whiteSpace=wrap;rounded=0;" vertex="1" parent="1">
          <mxGeometry x="70" y="170" width="60" height="20" as="geometry" />
        </mxCell>
        <mxCell id="m1J_qlZTNVkyLebTVixf-25" style="edgeStyle=orthogonalEdgeStyle;rounded=0;orthogonalLoop=1;jettySize=auto;html=1;exitX=0.5;exitY=1;exitDx=0;exitDy=0;" edge="1" parent="1" source="m1J_qlZTNVkyLebTVixf-6" target="m1J_qlZTNVkyLebTVixf-22">
          <mxGeometry relative="1" as="geometry" />
        </mxCell>
        <mxCell id="m1J_qlZTNVkyLebTVixf-6" value="待推送订单信息" style="html=1;" vertex="1" parent="1">
          <mxGeometry x="370" y="170" width="110" height="50" as="geometry" />
        </mxCell>
        <mxCell id="m1J_qlZTNVkyLebTVixf-10" style="edgeStyle=orthogonalEdgeStyle;rounded=0;orthogonalLoop=1;jettySize=auto;html=1;exitX=1;exitY=0.5;exitDx=0;exitDy=0;entryX=0;entryY=0.5;entryDx=0;entryDy=0;" edge="1" parent="1">
          <mxGeometry relative="1" as="geometry">
            <mxPoint x="40" y="194.5" as="sourcePoint" />
            <mxPoint x="150" y="194.5" as="targetPoint" />
          </mxGeometry>
        </mxCell>
        <mxCell id="m1J_qlZTNVkyLebTVixf-11" value="系统创建任务" style="text;html=1;strokeColor=none;fillColor=none;align=center;verticalAlign=middle;whiteSpace=wrap;rounded=0;" vertex="1" parent="1">
          <mxGeometry x="280" y="169" width="60" height="20" as="geometry" />
        </mxCell>
        <mxCell id="m1J_qlZTNVkyLebTVixf-26" style="edgeStyle=orthogonalEdgeStyle;rounded=0;orthogonalLoop=1;jettySize=auto;html=1;exitX=0.5;exitY=1;exitDx=0;exitDy=0;" edge="1" parent="1" source="m1J_qlZTNVkyLebTVixf-12" target="m1J_qlZTNVkyLebTVixf-22">
          <mxGeometry relative="1" as="geometry" />
        </mxCell>
        <mxCell id="m1J_qlZTNVkyLebTVixf-12" value="待接单" style="html=1;" vertex="1" parent="1">
          <mxGeometry x="590" y="170" width="110" height="50" as="geometry" />
        </mxCell>
        <mxCell id="m1J_qlZTNVkyLebTVixf-13" style="edgeStyle=orthogonalEdgeStyle;rounded=0;orthogonalLoop=1;jettySize=auto;html=1;exitX=1;exitY=0.5;exitDx=0;exitDy=0;entryX=0;entryY=0.5;entryDx=0;entryDy=0;" edge="1" parent="1">
          <mxGeometry relative="1" as="geometry">
            <mxPoint x="480" y="194.5" as="sourcePoint" />
            <mxPoint x="590" y="194.5" as="targetPoint" />
          </mxGeometry>
        </mxCell>
        <mxCell id="m1J_qlZTNVkyLebTVixf-14" value="推送" style="text;html=1;strokeColor=none;fillColor=none;align=center;verticalAlign=middle;whiteSpace=wrap;rounded=0;" vertex="1" parent="1">
          <mxGeometry x="500" y="170" width="60" height="20" as="geometry" />
        </mxCell>
        <mxCell id="m1J_qlZTNVkyLebTVixf-16" style="edgeStyle=orthogonalEdgeStyle;rounded=0;orthogonalLoop=1;jettySize=auto;html=1;exitX=0.5;exitY=0;exitDx=0;exitDy=0;entryX=0.5;entryY=0;entryDx=0;entryDy=0;" edge="1" parent="1" source="m1J_qlZTNVkyLebTVixf-15" target="m1J_qlZTNVkyLebTVixf-3">
          <mxGeometry relative="1" as="geometry">
            <Array as="points">
              <mxPoint x="865" y="120" />
              <mxPoint x="205" y="120" />
            </Array>
          </mxGeometry>
        </mxCell>
        <mxCell id="m1J_qlZTNVkyLebTVixf-21" style="edgeStyle=orthogonalEdgeStyle;rounded=0;orthogonalLoop=1;jettySize=auto;html=1;exitX=1;exitY=0.5;exitDx=0;exitDy=0;entryX=1;entryY=0.5;entryDx=0;entryDy=0;" edge="1" parent="1" source="m1J_qlZTNVkyLebTVixf-15" target="m1J_qlZTNVkyLebTVixf-20">
          <mxGeometry relative="1" as="geometry" />
        </mxCell>
        <mxCell id="m1J_qlZTNVkyLebTVixf-28" style="edgeStyle=orthogonalEdgeStyle;rounded=0;orthogonalLoop=1;jettySize=auto;html=1;exitX=0.5;exitY=1;exitDx=0;exitDy=0;entryX=1;entryY=0.5;entryDx=0;entryDy=0;" edge="1" parent="1" source="m1J_qlZTNVkyLebTVixf-15" target="m1J_qlZTNVkyLebTVixf-22">
          <mxGeometry relative="1" as="geometry" />
        </mxCell>
        <mxCell id="m1J_qlZTNVkyLebTVixf-15" value="已接单" style="html=1;" vertex="1" parent="1">
          <mxGeometry x="810" y="170" width="110" height="50" as="geometry" />
        </mxCell>
        <mxCell id="m1J_qlZTNVkyLebTVixf-17" value="快递员取消" style="text;html=1;strokeColor=none;fillColor=none;align=center;verticalAlign=middle;whiteSpace=wrap;rounded=0;" vertex="1" parent="1">
          <mxGeometry x="490" y="96" width="90" height="20" as="geometry" />
        </mxCell>
        <mxCell id="m1J_qlZTNVkyLebTVixf-18" style="edgeStyle=orthogonalEdgeStyle;rounded=0;orthogonalLoop=1;jettySize=auto;html=1;exitX=1;exitY=0.5;exitDx=0;exitDy=0;entryX=0;entryY=0.5;entryDx=0;entryDy=0;" edge="1" parent="1">
          <mxGeometry relative="1" as="geometry">
            <mxPoint x="700" y="194.5" as="sourcePoint" />
            <mxPoint x="810" y="194.5" as="targetPoint" />
          </mxGeometry>
        </mxCell>
        <mxCell id="m1J_qlZTNVkyLebTVixf-19" value="抢单" style="text;html=1;strokeColor=none;fillColor=none;align=center;verticalAlign=middle;whiteSpace=wrap;rounded=0;" vertex="1" parent="1">
          <mxGeometry x="730" y="169" width="60" height="20" as="geometry" />
        </mxCell>
        <mxCell id="m1J_qlZTNVkyLebTVixf-34" style="edgeStyle=orthogonalEdgeStyle;rounded=0;orthogonalLoop=1;jettySize=auto;html=1;exitX=0;exitY=0.5;exitDx=0;exitDy=0;entryX=1;entryY=0.5;entryDx=0;entryDy=0;" edge="1" parent="1" source="m1J_qlZTNVkyLebTVixf-20" target="m1J_qlZTNVkyLebTVixf-32">
          <mxGeometry relative="1" as="geometry" />
        </mxCell>
        <mxCell id="m1J_qlZTNVkyLebTVixf-37" style="edgeStyle=orthogonalEdgeStyle;rounded=0;orthogonalLoop=1;jettySize=auto;html=1;exitX=0.5;exitY=1;exitDx=0;exitDy=0;entryX=0.5;entryY=0;entryDx=0;entryDy=0;" edge="1" parent="1" source="m1J_qlZTNVkyLebTVixf-20" target="m1J_qlZTNVkyLebTVixf-36">
          <mxGeometry relative="1" as="geometry" />
        </mxCell>
        <mxCell id="m1J_qlZTNVkyLebTVixf-20" value="寄件中" style="html=1;" vertex="1" parent="1">
          <mxGeometry x="810" y="470" width="110" height="50" as="geometry" />
        </mxCell>
        <mxCell id="m1J_qlZTNVkyLebTVixf-30" style="edgeStyle=orthogonalEdgeStyle;rounded=0;orthogonalLoop=1;jettySize=auto;html=1;exitX=0.5;exitY=1;exitDx=0;exitDy=0;entryX=0.5;entryY=0;entryDx=0;entryDy=0;" edge="1" parent="1" source="m1J_qlZTNVkyLebTVixf-22" target="m1J_qlZTNVkyLebTVixf-29">
          <mxGeometry relative="1" as="geometry" />
        </mxCell>
        <mxCell id="m1J_qlZTNVkyLebTVixf-22" value="用户取消" style="html=1;" vertex="1" parent="1">
          <mxGeometry x="480" y="280" width="110" height="50" as="geometry" />
        </mxCell>
        <mxCell id="m1J_qlZTNVkyLebTVixf-24" value="用户取消" style="text;html=1;strokeColor=none;fillColor=none;align=center;verticalAlign=middle;whiteSpace=wrap;rounded=0;" vertex="1" parent="1">
          <mxGeometry x="280" y="278" width="60" height="20" as="geometry" />
        </mxCell>
        <mxCell id="m1J_qlZTNVkyLebTVixf-27" value="用户取消" style="text;html=1;strokeColor=none;fillColor=none;align=center;verticalAlign=middle;whiteSpace=wrap;rounded=0;" vertex="1" parent="1">
          <mxGeometry x="505" y="220" width="60" height="20" as="geometry" />
        </mxCell>
        <mxCell id="m1J_qlZTNVkyLebTVixf-29" value="" style="ellipse;html=1;shape=endState;fillColor=#000000;strokeColor=#ff0000;" vertex="1" parent="1">
          <mxGeometry x="520" y="380" width="30" height="30" as="geometry" />
        </mxCell>
        <mxCell id="m1J_qlZTNVkyLebTVixf-31" value="结束" style="text;html=1;strokeColor=none;fillColor=none;align=center;verticalAlign=middle;whiteSpace=wrap;rounded=0;" vertex="1" parent="1">
          <mxGeometry x="540" y="385" width="60" height="20" as="geometry" />
        </mxCell>
        <mxCell id="m1J_qlZTNVkyLebTVixf-35" style="edgeStyle=orthogonalEdgeStyle;rounded=0;orthogonalLoop=1;jettySize=auto;html=1;exitX=0;exitY=0.5;exitDx=0;exitDy=0;" edge="1" parent="1" source="m1J_qlZTNVkyLebTVixf-32">
          <mxGeometry relative="1" as="geometry">
            <mxPoint x="470" y="495" as="targetPoint" />
          </mxGeometry>
        </mxCell>
        <mxCell id="m1J_qlZTNVkyLebTVixf-32" value="退件中" style="html=1;" vertex="1" parent="1">
          <mxGeometry x="600" y="470" width="110" height="50" as="geometry" />
        </mxCell>
        <mxCell id="m1J_qlZTNVkyLebTVixf-33" value="退件完成" style="html=1;" vertex="1" parent="1">
          <mxGeometry x="359" y="470" width="110" height="50" as="geometry" />
        </mxCell>
        <mxCell id="m1J_qlZTNVkyLebTVixf-36" value="寄件成功" style="html=1;" vertex="1" parent="1">
          <mxGeometry x="810" y="590" width="110" height="50" as="geometry" />
        </mxCell>
      </root>
    </mxGraphModel>
  </diagram>
</mxfile>
